<svg width="48" height="49" viewBox="0 0 48 49" fill="none" xmlns="http://www.w3.org/2000/svg">
<path d="M6.28463 22.7079H1.88232C1.64832 22.7079 1.42389 22.6149 1.25843 22.4494C1.09296 22.284 1 22.0596 1 21.8255V21.74C1 21.376 1.18194 21.036 1.48484 20.8341L1.68507 20.7006C1.74505 20.6606 1.80902 20.627 1.87594 20.6002L2.20229 20.4697C2.64815 20.2913 2.81694 19.7479 2.55056 19.3483L2.17247 18.8442C1.91032 18.4947 1.72069 18.0963 1.61473 17.6724L1.58932 17.5708C1.54119 17.3783 1.51685 17.1806 1.51685 16.9821V16.7436C1.51685 16.4199 1.61266 16.1035 1.7922 15.8342C1.95046 15.5968 2.16794 15.4048 2.42313 15.2772L2.78442 15.0966C2.97053 15.0035 3.17574 14.9551 3.38382 14.9551C3.83195 14.9551 4.25043 14.7311 4.49901 14.3582L4.53728 14.3008C4.59095 14.2203 4.65243 14.1453 4.72085 14.0769L5.13598 13.6618C5.30071 13.497 5.52414 13.4045 5.75711 13.4045C6.01781 13.4045 6.26504 13.5203 6.43193 13.7206L7.1537 14.5867C7.35727 14.831 7.5243 15.1035 7.64956 15.3958L8.07047 16.3779C8.17925 16.6317 8.34655 16.8562 8.55869 17.033L9.20706 17.5733C9.53524 17.8468 10.0178 17.8249 10.3199 17.5228C10.4748 17.3679 10.6849 17.2809 10.9039 17.2809H12.1124H13.3262C13.5458 17.2809 13.7604 17.2159 13.943 17.0942C14.2524 16.8879 14.4382 16.5407 14.4382 16.169V13.1571C14.4382 12.6659 14.6837 12.2071 15.0924 11.9346C15.1729 11.881 15.2479 11.8195 15.3164 11.7511L15.9888 11.0787L16.4306 10.6368C16.6441 10.4233 16.764 10.1337 16.764 9.8318V9.41985C16.764 9.17583 16.9202 8.95919 17.1517 8.88203C17.3832 8.80486 17.5393 8.58822 17.5393 8.3442V7.97753V7.29987C17.5393 6.58768 17.8746 5.91706 18.4444 5.48974C18.53 5.4255 18.611 5.35526 18.6867 5.27956L18.8267 5.13959C19.168 4.79827 19.5957 4.55614 20.064 4.43907C20.2752 4.38626 20.4921 4.35955 20.7099 4.35955H22.3092C22.7299 4.35955 23.1334 4.19243 23.4309 3.89495C23.6342 3.69166 23.8889 3.54744 24.1678 3.47771L24.6104 3.36706C24.7199 3.33969 24.8324 3.32584 24.9452 3.32584H25.5324C25.9706 3.32584 26.3258 2.9706 26.3258 2.53238C26.3258 2.37573 26.3722 2.22258 26.4591 2.09224L26.6012 1.87911C26.7595 1.64172 26.9769 1.44974 27.2321 1.32214L27.3899 1.24323C27.7099 1.08328 28.0626 1 28.4203 1H29.8342C30.4008 1 30.9442 1.22507 31.3448 1.6257L31.3983 1.67925C31.4622 1.74311 31.5196 1.81313 31.5697 1.88828C31.8427 2.29782 31.8754 2.82225 31.6553 3.26249L31.5158 3.54148C31.5016 3.56991 31.4841 3.5966 31.4638 3.62102L30.9178 4.27613C30.7557 4.47071 30.9755 4.74822 31.202 4.63495C31.2245 4.62371 31.245 4.60892 31.2628 4.59115L32.1091 3.74484C32.216 3.63793 32.3304 3.53874 32.4513 3.44803L32.9346 3.08555C33.174 2.90603 33.4651 2.80899 33.7643 2.80899C34.131 2.80899 34.4828 2.95468 34.7421 3.214L34.9519 3.42377C35.0582 3.53007 35.1809 3.61855 35.3154 3.68578C35.8187 3.93746 36.4239 3.86296 36.8512 3.49671L37.7234 2.74917C37.8772 2.61726 38.0467 2.50473 38.228 2.41408L38.5317 2.26223C38.8279 2.11412 39.1651 2.06897 39.4898 2.13392L39.5886 2.15367C40.0205 2.24005 40.3795 2.53873 40.5431 2.94768C40.7025 3.34619 40.6555 3.79763 40.4174 4.15475L40.2809 4.35955L39.2472 5.65169L38.6624 6.4314C38.5388 6.59627 38.4719 6.7968 38.4719 7.00289C38.4719 7.29224 38.6034 7.5659 38.8294 7.74665L39.118 7.97753C39.5263 8.30421 39.764 8.79881 39.764 9.32175V10.2384C39.764 10.9548 39.9761 11.6552 40.3735 12.2512L40.7978 12.8876L41.2215 13.7352C41.4546 14.2013 41.6166 14.6995 41.7022 15.2135C41.7879 15.7275 41.9499 16.2257 42.183 16.6918L42.3483 17.0225L42.6459 17.7665C42.7893 18.125 43.0286 18.4372 43.3375 18.6688C43.7019 18.9421 44.1451 19.0899 44.6006 19.0899H46.6033C46.8224 19.0899 47 19.2675 47 19.4866C47 19.565 46.9768 19.6415 46.9334 19.7067L46.4831 20.382C46.1461 20.8876 45.9663 21.4815 45.9663 22.0891V23.3414C45.9663 23.5976 45.8645 23.8434 45.6833 24.0245C45.3893 24.3185 44.9402 24.3914 44.5682 24.2055L44.023 23.9329C43.7714 23.8071 43.494 23.7416 43.2127 23.7416H41.573C40.7205 23.7416 39.8768 23.9147 39.0932 24.2506L38.4719 24.5169L37.479 25.0842C36.936 25.3945 36.4213 25.7519 35.9409 26.1523C35.3899 26.6114 34.8866 27.1248 34.4386 27.6849L34.0787 28.1348L33.1059 29.1076C32.8932 29.3203 32.696 29.5477 32.5155 29.7883L32.3512 30.0074C32.1255 30.3083 31.9405 30.6376 31.8008 30.9868C31.5984 31.4928 31.4944 32.0328 31.4944 32.5779V34.481C31.4944 34.7274 31.5414 34.9715 31.6329 35.2002C31.8697 35.7923 31.7999 36.4631 31.4462 36.9937L31.2621 37.2698C31.0765 37.5481 30.9775 37.8751 30.9775 38.2096V38.2771C30.9775 38.7288 31.1749 39.158 31.5179 39.4519L31.9541 39.8258C32.4031 40.2107 32.4294 40.8964 32.0112 41.3146L31.1474 42.1785C31.0386 42.2872 30.9775 42.4347 30.9775 42.5885C30.9775 43.0451 30.4742 43.3226 30.0881 43.0787L26.5218 40.8263C26.2214 40.6366 25.8888 40.5036 25.5404 40.4339L25.1595 40.3578C24.9065 40.3072 24.6454 40.3134 24.3951 40.3759L24.2485 40.4126C23.9223 40.4942 23.6382 40.6944 23.4517 40.9741L23.4246 41.0148C23.2943 41.2103 23.2247 41.44 23.2247 41.675C23.2247 42.3323 22.6918 42.8652 22.0345 42.8652H20.301C19.5255 42.8652 18.7818 43.1732 18.2335 43.7215L16.3685 45.5866C16.1254 45.8297 15.9888 46.1595 15.9888 46.5033C15.9888 47.3044 15.2694 47.9138 14.4792 47.7821L14.1833 47.7328C13.4356 47.6082 12.8876 46.9613 12.8876 46.2034V45.1822C12.8876 44.6914 12.6927 44.2208 12.3457 43.8738C12.1914 43.7195 12.0655 43.539 11.9741 43.3408L11.2566 41.7863C10.8286 40.859 10.9438 39.7716 11.5566 38.9545L11.5768 38.9276C11.9244 38.4641 12.1124 37.9003 12.1124 37.3208C12.1124 36.4255 12.5598 35.5893 13.3048 35.0927L13.6629 34.8539L17.0917 32.5681C17.8905 32.0356 18.5216 31.287 18.9115 30.4097L19.1294 29.9195C19.2737 29.5948 19.3483 29.2433 19.3483 28.888V28.3933C19.3483 27.9052 19.1185 27.4456 18.7281 27.1528C18.4597 26.9515 18.1332 26.8427 17.7978 26.8427H16.4866C16.1569 26.8427 15.8293 26.8959 15.5165 27.0001C14.3857 27.3771 13.139 27.0649 12.3192 26.1996L10.8864 24.6873C9.68933 23.4236 8.02527 22.7079 6.28463 22.7079Z" fill="#0085FF" stroke="black" stroke-width="2"/>
</svg>
