<svg width="35" height="30" viewBox="0 0 35 30" fill="none" xmlns="http://www.w3.org/2000/svg">
<path d="M29.9124 11.66H29.1808C29.1163 11.66 29.0544 11.6344 29.0087 11.5887C28.8092 11.3892 28.4868 11.6323 28.6239 11.879L29.0345 12.618C29.0643 12.6718 29.08 12.7323 29.08 12.7937V13.0265C29.08 13.4692 28.8478 13.8793 28.4682 14.1071L28.43 14.13C28.0267 14.372 27.78 14.8077 27.78 15.278V16.9768C27.78 18.03 28.3443 19.0025 29.2588 19.525C29.4852 19.6544 29.6935 19.8135 29.8779 19.9979L31.16 21.28C31.7521 21.8721 31.8043 22.8146 31.2812 23.4685L31.16 23.62L30.1104 24.8445C29.8511 25.147 29.9452 25.6126 30.3015 25.7907C30.509 25.8945 30.64 26.1065 30.64 26.3385V26.5601C30.64 26.9781 30.3725 27.3491 29.976 27.4813L29.3667 27.6844C29.1768 27.7477 28.978 27.78 28.7778 27.78H28.6688C28.0935 27.78 27.5352 27.5842 27.086 27.2248L26.8978 27.0742C26.6235 26.8548 26.4076 26.5711 26.2693 26.2483L25.9924 25.6022C25.8158 25.1902 25.9078 24.7121 26.2248 24.3952C26.6529 23.9671 26.6529 23.2729 26.2248 22.8448L25.7 22.32L24.93 21.396C24.5942 20.993 24.0967 20.76 23.5721 20.76C23.1034 20.76 22.6526 20.5726 22.3212 20.2412C21.9882 19.9082 21.5355 19.72 21.0646 19.72H16.9214C16.539 19.72 16.162 19.809 15.82 19.98L15.7677 20.0061C15.4601 20.1599 15.121 20.24 14.7771 20.24C14.274 20.24 13.786 20.4112 13.3932 20.7254L13.35 20.76C12.9292 21.0966 12.4064 21.28 11.8676 21.28H11.5836C10.9553 21.28 10.341 21.466 9.81823 21.8145L9.27332 22.1778C9.13146 22.2724 8.99927 22.3807 8.87871 22.5013L8.08574 23.2943C7.60426 23.7757 7.56181 24.5423 7.98717 25.074C8.17673 25.3109 8.28 25.6053 8.28 25.9088V26.7232C8.28 27.0669 8.14347 27.3965 7.90045 27.6395C7.50603 28.034 6.90349 28.1317 6.40459 27.8823L5.16 27.26L3.67464 26.3316C3.28051 26.0853 2.92612 25.7805 2.62365 25.4276C1.91147 24.5967 1.52 23.5385 1.52 22.4441V19.72V15.9764C1.52 15.7002 1.4815 15.4252 1.4056 15.1596C1.15009 14.2653 1.32779 13.3029 1.88585 12.5589L2.27949 12.034C2.46595 11.7854 2.62487 11.5173 2.75346 11.2344L3.86 8.8L3.95828 8.60343C4.41074 7.69852 4.74054 6.73732 4.93895 5.74523L5.09568 4.96159C5.13846 4.74772 5.16 4.53015 5.16 4.31204V3.88722C5.16 2.29265 6.45265 1 8.04722 1C8.70282 1 9.33891 1.22313 9.85085 1.63268L10.6019 2.23354C11.2868 2.78148 12.1379 3.08 13.015 3.08C13.6613 3.08 14.2973 3.24217 14.8647 3.55167L16.0659 4.20688C16.594 4.49494 17.0927 4.83394 17.5549 5.21904L18.42 5.94L19.6968 7.05722C20.0099 7.3312 20.5 7.10883 20.5 6.69276C20.5 6.54564 20.5669 6.4065 20.6818 6.3146L20.9506 6.09954C21.3622 5.77027 21.3192 5.13152 20.8672 4.86033C20.6394 4.72364 20.5 4.47743 20.5 4.21175V3.73909C20.5 3.31708 20.6676 2.91236 20.966 2.61395L21.0492 2.53076C21.515 2.06499 22.191 1.87775 22.83 2.03751L23.4841 2.20103C23.7469 2.26672 23.9998 2.36693 24.2362 2.49905L32.2325 6.9676C32.5502 7.14509 32.807 7.41402 32.9697 7.73945C33.2919 8.38371 33.202 9.15755 32.7409 9.7109L32.3586 10.1696C32.2531 10.2963 32.1363 10.4131 32.0096 10.5186L31.1989 11.1942C30.8378 11.4952 30.3825 11.66 29.9124 11.66Z" fill="#8CD89D" stroke="black" stroke-width="2"/>
</svg>
