<svg width="52" height="59" viewBox="0 0 52 59" fill="none" xmlns="http://www.w3.org/2000/svg">
<path d="M43.5024 56.4647L42.5216 57.2494C42.261 57.4578 41.9372 57.5714 41.6035 57.5714C41.2597 57.5714 40.9268 57.4509 40.6627 57.2308L39.8428 56.5475C39.6148 56.3576 39.4066 56.1452 39.2213 55.9135L38.8165 55.4074C38.5757 55.1065 38.2831 54.8508 37.9526 54.6525L37.6975 54.4995C37.3353 54.2821 37.0425 53.9659 36.8536 53.5881C36.6993 53.2796 36.619 52.9395 36.619 52.5946V51.5476V51.0049C36.619 50.3235 36.5092 49.6466 36.2937 49.0002C36.1617 48.6042 35.9909 48.2222 35.7838 47.8597L35.3607 47.1193C35.1529 46.7556 34.8976 46.4214 34.6014 46.1252L34.5795 46.1033C34.0277 45.5515 33.3443 45.1494 32.594 44.935L32.2136 44.8263C32.009 44.7678 31.8146 44.678 31.6375 44.5599C31.2994 44.3345 30.9023 44.2143 30.496 44.2143H29.5704C29.0387 44.2143 28.5143 44.0905 28.0388 43.8527C27.8231 43.7448 27.6193 43.6145 27.431 43.4638L27.1673 43.2528C26.662 42.8486 26.2221 42.3688 25.8631 41.8304C25.5276 41.327 25.1211 40.8747 24.6564 40.4875L23.7857 39.7619L23.0904 39.0666C22.8599 38.836 22.6963 38.5472 22.6173 38.2309C22.5256 37.8641 22.5518 37.4777 22.6922 37.1266L22.7678 36.9376C22.9197 36.5579 22.9645 36.1438 22.8972 35.7405L22.8075 35.2024C22.7632 34.9365 22.6109 34.7009 22.3866 34.5514L22.2563 34.4645C22.0664 34.3379 21.9524 34.1248 21.9524 33.8967C21.9524 33.5198 21.6469 33.2143 21.27 33.2143H19.8571H18.0238H17.5318C17.176 33.2143 16.8349 33.073 16.5833 32.8214C16.3318 32.5699 15.9906 32.4286 15.6349 32.4286H15.4841C15.1073 32.4286 14.7554 32.2402 14.5464 31.9267C14.423 31.7416 14.3571 31.5241 14.3571 31.3016V31.0674C14.3571 30.7595 14.266 30.4585 14.0952 30.2024C13.9245 29.9462 13.8333 29.6452 13.8333 29.3374V28.008C13.8333 27.6522 13.692 27.3111 13.4405 27.0595C13.1889 26.808 12.8478 26.6667 12.492 26.6667H12.322C11.943 26.6667 11.5742 26.7896 11.271 27.017L10.8207 27.3547C10.734 27.4197 10.652 27.4908 10.5754 27.5674L10.3896 27.7533C10.0791 28.0637 9.65814 28.2381 9.21916 28.2381C8.66575 28.2381 8.14894 27.9615 7.84196 27.501L7.71227 27.3065C7.43691 26.8934 7.02363 26.5918 6.54631 26.4554L6.12541 26.3351C5.70422 26.2148 5.36955 25.8944 5.23104 25.4788L5.19155 25.3603C5.0345 24.8892 4.59359 24.5714 4.09696 24.5714H3.9782C3.74824 24.5714 3.5277 24.4801 3.36509 24.3175C3.05997 24.0123 3.02564 23.5293 3.28454 23.1841L3.40091 23.0289C3.5425 22.8401 3.61905 22.6105 3.61905 22.3745V21.1984C3.61905 20.8427 3.76036 20.5015 4.01191 20.25C4.26345 19.9984 4.60461 19.8571 4.96035 19.8571H5.97619H7.28571C7.62572 19.8571 7.95656 19.7469 8.22857 19.5428C8.62427 19.2461 8.85714 18.7803 8.85714 18.2857V16.4524V14.3571V13.9126C8.85714 13.6901 8.79129 13.4726 8.66788 13.2875C8.45887 12.974 8.10701 12.7857 7.73023 12.7857H7.28571H5.8841C5.62628 12.7857 5.39739 12.9507 5.31586 13.1953L5.22719 13.4613C5.10565 13.8259 4.61795 13.8912 4.40476 13.5714L2.83333 11.7381L1.52381 10.4286C1.20604 10.1108 1.10822 9.63422 1.27512 9.21696L1.40541 8.89124C1.48362 8.6957 1.52381 8.48703 1.52381 8.27643V7.81432C1.52381 7.32045 1.77063 6.85926 2.18156 6.58531C2.26664 6.52859 2.35738 6.48085 2.45232 6.44288L3.61905 5.97619C4.83683 5.62825 6.00822 5.13476 7.10786 4.50639L7.28571 4.40476L8.85714 3.61905L10.6905 2.57143L11.7381 2.04762L13.0476 1.52381L13.6276 1.29181C14.1095 1.09904 14.6238 1 15.1429 1H15.7163C16.0295 1 16.3399 1.05977 16.6308 1.17612C17.1907 1.40009 17.649 1.82176 17.9187 2.36116L18.0238 2.57143L18.5476 3.61905L18.9333 4.58318C19.025 4.81244 19.1465 5.02863 19.2946 5.22616L19.6242 5.66562C19.7754 5.86721 19.8571 6.11241 19.8571 6.3644C19.8571 6.77349 19.6425 7.15259 19.2917 7.36307L18.8631 7.62021C18.6545 7.74542 18.4698 7.90682 18.3178 8.09684L17.5 9.11904L16.1905 10.4286L15.1429 11.4762L14.645 11.9741C14.486 12.133 14.486 12.3908 14.645 12.5497C14.7822 12.6869 14.9972 12.7082 15.1586 12.6006L15.4547 12.4032C15.5929 12.3111 15.7553 12.2619 15.9214 12.2619H16.4025C16.7798 12.2619 17.1519 12.3497 17.4893 12.5185L17.7343 12.6409C17.9269 12.7373 18.1105 12.8507 18.2828 12.9799L18.7149 13.304C18.9516 13.4816 19.165 13.6883 19.3498 13.9194L19.9726 14.6978C20.0674 14.8164 20.119 14.9636 20.119 15.1154V15.3299C20.119 15.7924 20.647 16.0564 21.017 15.7789L21.0313 15.7682C21.1192 15.7023 21.226 15.6667 21.3359 15.6667C21.8107 15.6667 22.0257 15.073 21.6609 14.769L21.3945 14.547C21.2501 14.4267 21.1667 14.2485 21.1667 14.0606V13.5714V12.7857C21.1667 12.4457 21.2769 12.1149 21.481 11.8429L21.6695 11.5914C21.8476 11.354 22.127 11.2143 22.4238 11.2143C22.6278 11.2143 22.8263 11.1481 22.9895 11.0257L23.5627 10.5959C23.7111 10.4846 23.8692 10.3868 24.0351 10.3039L24.2176 10.2126C24.6225 10.0102 25.069 9.90476 25.5218 9.90476H26.0636C26.286 9.90476 26.5035 9.97061 26.6887 10.094C27.0022 10.303 27.1905 10.6549 27.1905 11.0317V11.7381V12.614C27.1905 13.208 26.8788 13.7584 26.3695 14.064C26.0525 14.2542 25.8066 14.5429 25.6694 14.8861L25.3571 15.6667L25.1413 16.2063C24.9436 16.7005 24.9436 17.2518 25.1413 17.746L25.1824 17.8488C25.2967 18.1346 25.4874 18.3834 25.7336 18.568L26.061 18.8136C26.2774 18.9759 26.4048 19.2306 26.4048 19.5011C26.4048 19.7291 26.4953 19.9477 26.6565 20.1089L27.7143 21.1667L28.4245 21.8769C28.648 22.1003 28.906 22.2863 29.1887 22.4277C29.597 22.6318 30.0472 22.7381 30.5036 22.7381H30.5307C30.9194 22.7381 31.3045 22.8122 31.6653 22.9566L31.8788 23.042C32.242 23.1873 32.6295 23.2619 33.0207 23.2619H35.8333C35.978 23.2619 36.0952 23.3792 36.0952 23.5238C36.0952 23.6684 36.2125 23.7857 36.3571 23.7857H36.9156C37.0643 23.7857 37.2102 23.8261 37.3377 23.9026L38.1468 24.3881C38.3502 24.5101 38.5429 24.649 38.7229 24.8033L39.8574 25.7757C40.1411 26.0189 40.3837 26.3062 40.576 26.6266L40.6845 26.8074C40.9377 27.2294 41.0714 27.7123 41.0714 28.2045C41.0714 28.5723 40.9967 28.9362 40.8519 29.2742L40.6786 29.6786C40.4194 30.2834 40.2857 30.9345 40.2857 31.5925V32.5595C40.2857 32.9845 40.1479 33.3981 39.8929 33.7381C39.6379 34.0781 39.5 34.4916 39.5 34.9166V36.1469C39.5 36.4547 39.4089 36.7557 39.2381 37.0119C39.0673 37.268 38.9762 37.569 38.9762 37.8769V38.1406C38.9762 38.5178 39.064 38.8899 39.2328 39.2274L39.2572 39.2763C39.4169 39.5956 39.5 39.9478 39.5 40.3048V40.4166C39.5 40.8417 39.6379 41.2552 39.8929 41.5952C40.1479 41.9352 40.2857 42.3488 40.2857 42.7738V43.4286C40.2857 44.2786 40.5614 45.1057 41.0714 45.7857L41.7533 46.7403C42.1584 47.3075 42.7523 47.7119 43.4286 47.8809C44.9394 48.2167 46.2582 49.1316 47.1017 50.4293L48.8215 53.0752C49.0623 53.4457 49.1905 53.878 49.1905 54.3198C49.1905 54.7337 49.303 55.1398 49.5159 55.4948L49.9577 56.2311C49.97 56.2515 49.9847 56.2704 50.0016 56.2873C50.1855 56.4712 50.0553 56.7857 49.7952 56.7857H47.0318C46.7324 56.7857 46.4405 56.6921 46.1968 56.5181L46.0258 56.3959C45.264 55.8518 44.2335 55.8799 43.5024 56.4647Z" fill="#FFAAF6" stroke="black" stroke-width="2"/>
</svg>
