<svg width="51" height="49" viewBox="0 0 51 49" fill="none" xmlns="http://www.w3.org/2000/svg">
<path d="M5.34668 31.1027L2.50123 29.1233C1.61817 28.5089 1.26441 27.3738 1.64212 26.3666L1.68607 26.2494C1.74411 26.0946 1.82629 25.95 1.92956 25.8209C2.4281 25.1978 2.37834 24.2994 1.81403 23.7351L1.57114 23.4922C1.20544 23.1265 1 22.6305 1 22.1133V21.6628C1 21.3126 1.13915 20.9766 1.38684 20.7289C1.63453 20.4812 1.77368 20.1453 1.77368 19.795V19.0526V16.5856C1.77368 15.6718 2.04416 14.7785 2.55104 14.0182C2.72011 13.7646 2.91381 13.5283 3.12934 13.3128L3.83684 12.6053L4.72671 11.7154C5.16397 11.2781 5.64336 10.8851 6.1579 10.5421L6.35659 10.4096C6.73898 10.1547 7.09526 9.86263 7.42023 9.53766L7.7227 9.23518C8.05278 8.90511 8.4339 8.63041 8.85142 8.42165C9.45447 8.12013 10.1194 7.96315 10.7937 7.96315H11.0579H12.6053H13.25C13.6685 7.96315 14.0757 8.09889 14.4105 8.34999L14.6684 8.54341C14.8358 8.66897 15.0394 8.73683 15.2487 8.73683C15.7828 8.73683 16.2158 8.30385 16.2158 7.76973V5.06825C16.2158 4.45541 16.5043 3.87833 16.9946 3.51063L17.0558 3.46475C17.1827 3.36957 17.3241 3.29548 17.4746 3.24532L18.0278 3.06089C18.4585 2.91735 18.9264 3.13435 19.095 3.55581C19.2252 3.8813 19.5404 4.09473 19.891 4.09473H21.5989C21.9622 4.09473 22.3231 4.1533 22.6677 4.26818L23.9274 4.68807C24.2865 4.80777 24.628 4.9748 24.9429 5.18476L25.5187 5.56863C25.8428 5.7847 26.2236 5.9 26.6132 5.9C27.0612 5.9 27.4959 5.74752 27.8457 5.46765L27.9828 5.35797C28.3696 5.04854 28.5947 4.58007 28.5947 4.08475C28.5947 3.60084 28.8097 3.14193 29.1814 2.83214L29.9545 2.1879C30.0791 2.08404 30.1913 1.96602 30.2886 1.83623C30.6834 1.30981 31.303 1 31.9611 1H32.2053C33.2214 1 34.2221 1.24855 35.1202 1.72399L37.5094 2.98887C37.9237 3.20822 38.2912 3.50631 38.5913 3.86645L39.0266 4.38875C39.2849 4.69868 39.4263 5.08936 39.4263 5.49281V5.87592C39.4263 6.2132 39.5949 6.52816 39.8755 6.71525C40.0843 6.85444 40.2337 7.06647 40.2946 7.30992L40.3956 7.714C40.437 7.87948 40.4579 8.0494 40.4579 8.21997V9.76949C40.4579 9.94006 40.437 10.11 40.3956 10.2755L40.2946 10.6795C40.2337 10.923 40.0843 11.135 39.8755 11.2742C39.5949 11.4613 39.4263 11.7763 39.4263 12.1135V12.2895C39.4263 12.4971 39.378 12.7019 39.2851 12.8877L39.1617 13.1344C38.9965 13.4648 38.9105 13.8292 38.9105 14.1986V14.6371C38.9105 14.9874 38.7714 15.3233 38.5237 15.571C38.276 15.8187 37.9401 15.9579 37.5898 15.9579H36.4612C36.3767 15.9579 36.294 15.9329 36.2237 15.886C35.9391 15.6962 35.5579 15.9002 35.5579 16.2423V16.8663C35.5579 17.1062 35.4449 17.3321 35.253 17.476L34.9389 17.7116C34.6711 17.9124 34.3453 18.021 34.0105 18.021H33.0309C32.4964 18.021 31.9779 18.2029 31.5605 18.5368L31.0691 18.93C30.9698 19.0094 30.8466 19.0526 30.7195 19.0526H30.3023C29.9577 19.0526 29.7851 19.4693 30.0288 19.713C30.1013 19.7855 30.1421 19.8839 30.1421 19.9865V20.5408C30.1421 20.914 30.2632 21.2772 30.4871 21.5758L30.5544 21.6655C30.7904 21.9802 31.1115 22.2207 31.4798 22.3588L32.9789 22.921L34.1018 23.4824C34.381 23.622 34.6888 23.6947 35.001 23.6947C35.3654 23.6947 35.723 23.5957 36.0354 23.4082L36.2026 23.3079C36.6245 23.0547 37.1073 22.921 37.5993 22.921H40.4579H42.7789H43.8323C44.1556 22.921 44.4727 23.0089 44.7499 23.1752L45.161 23.4219C45.4432 23.5911 45.6158 23.896 45.6158 24.225C45.6158 24.5382 45.4593 24.8306 45.1987 25.0043L45.0161 25.1261C44.9008 25.203 44.798 25.2972 44.7115 25.4054L43.8105 26.5316L42.8586 27.9595C42.8057 28.0387 42.7637 28.1247 42.7335 28.2151L42.592 28.6397C42.4302 29.1251 42.7915 29.6263 43.3031 29.6263C43.6096 29.6263 43.8852 29.8129 43.999 30.0974L44.3263 30.9158C44.6655 31.5942 45.158 32.1843 45.7648 32.6393L45.8737 32.721L46.6523 33.1882C46.9692 33.3784 47.1632 33.7209 47.1632 34.0905C47.1632 34.3695 47.0523 34.6371 46.855 34.8345L46.4243 35.2652C46.2369 35.4526 46.1316 35.7068 46.1316 35.9718C46.1316 36.3503 46.3454 36.6964 46.684 36.8657L46.8873 36.9673C47.0681 37.0577 47.2221 37.1937 47.3342 37.3618L47.3564 37.3951C47.5579 37.6973 47.8972 37.8789 48.2605 37.8789C48.5486 37.8789 48.825 37.9934 49.0288 38.1972L49.0974 38.2658C49.3451 38.5134 49.4842 38.8494 49.4842 39.1997V39.8812C49.4842 40.2604 49.5725 40.6344 49.7421 40.9736L49.8989 41.2873C49.9654 41.4202 50 41.5668 50 41.7154C50 41.9044 49.9441 42.0891 49.8392 42.2464L49.6113 42.5882C49.5268 42.715 49.4299 42.8332 49.3222 42.9409L47.9279 44.3352C47.7685 44.4946 47.6789 44.7108 47.6789 44.9363C47.6789 45.0444 47.6583 45.1515 47.6181 45.2519L47.5647 45.3855C47.3222 45.9918 46.7349 46.3894 46.0819 46.3894H46.065C45.7711 46.3894 45.4826 46.4693 45.2306 46.6206L44.6141 46.9904C44.4258 47.1034 44.2103 47.1631 43.9907 47.1631H43.7687C43.2221 47.1631 42.7789 46.72 42.7789 46.1733C42.7789 45.9779 42.7211 45.7869 42.6127 45.6243L42.4683 45.4077C42.3329 45.2046 42.1586 45.0302 41.9554 44.8948C41.6516 44.6922 41.2946 44.5842 40.9295 44.5842H40.4579C39.7974 44.5842 39.1639 44.8466 38.6969 45.3136L38.1368 45.8736C37.3112 46.6993 36.1914 47.1631 35.0238 47.1631H33.6572C31.8899 47.1631 30.1827 46.5216 28.8526 45.3579L27.6929 44.3431C27.1105 43.8335 26.3629 43.5526 25.5891 43.5526H25.0306C24.6667 43.5526 24.3136 43.6764 24.0295 43.9038C23.5161 44.3144 22.804 44.3699 22.2333 44.0438L21.7496 43.7674C21.5032 43.6266 21.2245 43.5526 20.9408 43.5526H20.8166C19.9848 43.5526 19.3105 42.8783 19.3105 42.0466C19.3105 41.687 19.1819 41.3394 18.948 41.0664L18.7244 40.8056C18.1359 40.119 17.9888 39.1577 18.345 38.3266C18.4716 38.0312 18.5368 37.7132 18.5368 37.3919V36.3315C18.5368 35.1491 18.2241 33.9877 17.6304 32.9651L14.114 26.9091C13.9684 26.6585 13.791 26.4278 13.586 26.2228C12.958 25.5949 12.1064 25.2421 11.2183 25.2421H9.76842C9.14538 25.2421 8.58511 25.6214 8.35372 26.1999L8.33528 26.246C8.25982 26.4346 8.22105 26.6359 8.22105 26.8391V27.2444C8.22105 27.6236 8.30935 27.9976 8.47895 28.3368L8.51433 28.4076C8.66066 28.7002 8.73684 29.023 8.73684 29.3502C8.73684 29.8607 8.54793 30.358 8.21174 30.7422C7.48789 31.5694 6.24905 31.7304 5.34668 31.1027Z" fill="#E88989" stroke="black" stroke-width="2"/>
</svg>
