<svg width="29" height="40" viewBox="0 0 29 40" fill="none" xmlns="http://www.w3.org/2000/svg">
<path d="M2.21275 37.8909L1.66805 37.2683C1.29212 36.8387 1.31368 36.1912 1.71735 35.7875C1.75363 35.7512 1.79245 35.7176 1.8335 35.6868L2.0885 35.4955C2.5107 35.1789 3.09124 35.1789 3.51344 35.4955C3.71899 35.6497 3.96899 35.733 4.22591 35.733H4.34466C4.67867 35.733 5.00367 35.6247 5.27087 35.4243L5.70749 35.0968C5.82791 35.0065 5.94177 34.9077 6.0482 34.8013L10.5792 30.2703C10.8704 29.9791 11.034 29.5842 11.034 29.1723V28.893C11.034 28.66 11.1265 28.4366 11.2913 28.2718C11.456 28.1071 11.5485 27.8837 11.5485 27.6507V26.9347C11.5485 26.6449 11.6934 26.3743 11.9345 26.2136C12.1756 26.0529 12.3204 25.7823 12.3204 25.4925V25.3762C12.3204 25.0887 12.4346 24.813 12.6379 24.6097L13.1803 24.0673C13.2924 23.9552 13.4218 23.8619 13.5635 23.791C14.0631 23.5413 14.3786 23.0307 14.3786 22.4722V22.2665C14.3786 21.9859 14.3133 21.7091 14.1878 21.4582L13.8641 20.8107L13.5606 20.3555C13.423 20.149 13.3495 19.9064 13.3495 19.6583C13.3495 19.1173 13.6957 18.637 14.2089 18.466L14.5123 18.3648C14.7628 18.2813 14.9904 18.1407 15.1771 17.954L15.3506 17.7805C15.5589 17.5722 15.7322 17.3317 15.8639 17.0683L15.8747 17.0468C16.0752 16.6457 16.1796 16.2034 16.1796 15.755V14.7917C16.1796 14.1868 16.0006 13.5955 15.665 13.0922C15.3267 12.4155 15.1505 11.6692 15.1505 10.9125V8.87701C15.1505 8.6023 15.2029 8.33012 15.3049 8.07507L15.4297 7.76312C15.5794 7.38888 15.5619 6.96849 15.3817 6.60797C15.2324 6.30944 14.9821 6.07349 14.6754 5.94201L13.7936 5.56409C13.4986 5.43767 13.2198 5.27647 12.963 5.08392L12.4483 4.69785C12.3631 4.63399 12.2826 4.56417 12.2074 4.48891C11.7855 4.06708 11.5485 3.49495 11.5485 2.8984V2.80097V2.31762C11.5485 1.96817 11.6874 1.63302 11.9345 1.38592C12.1816 1.13882 12.5167 1 12.8662 1H13.1137C13.2703 1 13.4263 1.01921 13.5783 1.05719L13.6662 1.07916C14.1324 1.19571 14.5581 1.43678 14.8979 1.77658L17.9668 4.84541C18.6346 5.51319 19.5403 5.88835 20.4846 5.88835H20.9843C21.2085 5.88835 21.4296 5.94055 21.6302 6.04082C21.769 6.11024 21.8958 6.20159 22.0055 6.31135L22.0571 6.3629C22.4122 6.71799 22.9007 6.91748 23.4029 6.91748C23.5595 6.91748 23.7176 6.93668 23.8695 6.97466L23.9158 6.98623C24.405 7.10853 24.8405 7.38799 25.1555 7.78173L25.4532 8.15387C25.6166 8.35816 25.758 8.57915 25.875 8.81315L26.007 9.0771C26.1446 9.35221 26.2624 9.63674 26.3597 9.92854L26.7282 11.034L26.9854 12.0631L27.1178 12.394C27.3703 13.0252 27.5 13.6988 27.5 14.3786V14.6265C27.5 15.3061 27.3153 15.9729 26.9656 16.5556L26.8139 16.8085C26.757 16.9034 26.6886 16.991 26.6103 17.0693L26.48 17.1996C26.3094 17.3702 26.2136 17.6016 26.2136 17.8428V18.4951C26.2136 18.6372 26.0984 18.7524 25.9563 18.7524C25.8142 18.7524 25.699 18.8676 25.699 19.0097V19.732C25.699 19.9015 25.5617 20.0388 25.3922 20.0388C25.2667 20.0388 25.1539 20.1152 25.1073 20.2317L24.6699 21.3252L24.2398 22.1854C24.1836 22.2978 24.1174 22.4049 24.042 22.5055L23.9735 22.5969C23.604 23.0895 23.4997 23.7321 23.6944 24.3163L23.7835 24.5834C23.8577 24.8062 24.0042 24.9979 24.1996 25.1282C24.4934 25.3241 24.6699 25.6539 24.6699 26.007V27.1361C24.6699 27.3691 24.7624 27.5925 24.9272 27.7573C25.0919 27.922 25.1845 28.1454 25.1845 28.3784V30.3808C25.1845 30.6833 25.0949 30.9789 24.9272 31.2306C24.7594 31.4822 24.6699 31.7779 24.6699 32.0803V32.1818C24.6699 32.4842 24.5804 32.7799 24.4126 33.0316L24.288 33.2185C24.2015 33.3482 24.1553 33.5007 24.1553 33.6567C24.1553 34.0929 23.8017 34.4466 23.3654 34.4466H21.6891C21.4561 34.4466 21.2327 34.5391 21.068 34.7039C20.9032 34.8686 20.6798 34.9612 20.4468 34.9612H18.5264C18.1769 34.9612 17.8418 35.1 17.5947 35.3471C17.3476 35.5942 17.0124 35.733 16.663 35.733H14.4394C14.0868 35.733 13.7645 35.9322 13.6068 36.2476C13.4491 36.5629 13.1268 36.7621 12.7742 36.7621H11.1019C10.7289 36.7621 10.3713 36.9103 10.1076 37.174C9.87496 37.4066 9.56816 37.5503 9.24056 37.5801L7.50649 37.7377C7.12141 37.7727 6.75365 37.9141 6.44432 38.1461C6.08343 38.4168 5.6445 38.5631 5.19339 38.5631H3.69423C3.12658 38.5631 2.58656 38.3181 2.21275 37.8909Z" fill="#D89DFC" stroke="black" stroke-width="2"/>
</svg>
