<svg width="41" height="21" viewBox="0 0 41 21" fill="none" xmlns="http://www.w3.org/2000/svg">
<path d="M37.5465 14.3421H36.8073C36.7137 14.3421 36.6217 14.3177 36.5405 14.2713C36.068 14.0013 35.5394 14.5236 35.8037 14.9993L36.0648 15.4692C36.1215 15.5714 36.1513 15.6863 36.1513 15.8032V15.9472C36.1513 16.384 35.9221 16.7888 35.5476 17.0136L35.2899 17.1682C35.0141 17.3337 34.6985 17.4211 34.3769 17.4211H33.5855H33.1013C32.2386 17.4211 31.3878 17.2202 30.6162 16.8344C30.3724 16.7125 30.1379 16.5729 29.9146 16.4166L28.3316 15.3084C27.901 15.007 27.4424 14.7478 26.9621 14.5343L25.93 14.0756C25.5641 13.913 25.1681 13.8289 24.7677 13.8289H24.4093C24.2007 13.8289 23.995 13.8775 23.8084 13.9708C23.3533 14.1984 23.0658 14.6635 23.0658 15.1724V15.7228C23.0658 15.995 23.1368 16.2625 23.2719 16.4988L23.7328 17.3055C23.928 17.6469 23.7962 18.0822 23.4444 18.258L23.3932 18.2837C23.1925 18.384 23.0658 18.5891 23.0658 18.8134C23.0658 19.3411 22.4278 19.6054 22.0546 19.2323L20.7566 17.9342L20.6394 17.7878C20.0387 17.0369 19.3015 16.4063 18.4666 15.9292C18.1123 15.7267 17.7422 15.553 17.36 15.4097L16.3728 15.0395C16.048 14.9177 15.7039 14.8553 15.357 14.8553C14.7 14.8553 14.0626 14.6317 13.5496 14.2213L13.2925 14.0156C13.1372 13.8913 12.9725 13.7794 12.7998 13.6807L12.6516 13.596C11.7418 13.0761 10.7119 12.8026 9.66398 12.8026H9.18598C7.86636 12.8026 6.5791 12.3941 5.50102 11.6331L3.37852 10.1348C3.01327 9.87701 2.79605 9.45781 2.79605 9.01073C2.79605 8.6458 2.65109 8.29583 2.39305 8.03778L2.00488 7.64961C1.84871 7.49344 1.71228 7.31871 1.59865 7.12933L1.45904 6.89665C1.15867 6.39603 1 5.82318 1 5.23937V5.13726C1 4.29941 1.35165 3.50002 1.96928 2.93387L3.51882 1.51345C3.83203 1.22634 4.3158 1.23685 4.61624 1.5373C4.76507 1.68613 4.96693 1.76974 5.17741 1.76974H7.79934C8.0119 1.76974 8.18421 1.94205 8.18421 2.15461C8.18421 2.36716 8.35652 2.53947 8.56908 2.53947H10.2874C10.5764 2.53947 10.8463 2.6839 11.0066 2.92434C11.1669 3.16479 11.4367 3.30921 11.7257 3.30921H13.8289C14.1124 3.30921 14.3421 3.53896 14.3421 3.82237C14.3421 4.10578 14.5719 4.33553 14.8553 4.33553H15.9002C16.222 4.33553 16.5359 4.43515 16.7987 4.62071L19.5426 6.55752C20.2997 7.09195 21.2759 7.20676 22.1363 6.86259L24.8097 5.79322C25.3263 5.5866 25.8882 5.96702 25.8882 6.52336C25.8882 6.76225 25.9967 6.98819 26.1833 7.13742L26.4479 7.3491C26.8908 7.70341 27.4963 7.77585 28.0103 7.536L29.9756 6.61884C30.6481 6.30501 31.4125 6.24942 32.1234 6.46267L32.526 6.58346C33.1923 6.78335 33.9139 6.655 34.4705 6.23762C35.1777 5.70722 36.1343 5.65369 36.8963 6.1019L38.5119 7.05227C39.4339 7.59462 40 8.58443 40 9.65413V10.946C40 11.2976 39.8013 11.6191 39.4868 11.7763C39.1723 11.9336 38.9737 12.255 38.9737 12.6066V12.9149C38.9737 13.7031 38.3347 14.3421 37.5465 14.3421Z" fill="#D04D4D" stroke="black" stroke-width="2"/>
</svg>
